<?xml version="1.0" encoding="UTF-8"?>
<svg width="24px" height="24px" viewBox="0 0 24 24" version="1.1" xmlns="http://www.w3.org/2000/svg" xmlns:xlink="http://www.w3.org/1999/xlink">
    <!-- Generator: Sketch 57.1 (83088) - https://sketch.com -->
    <title>auto-drawing</title>
    <desc>Created with Sketch.</desc>
    <g id="Page-1" stroke="none" stroke-width="1" fill="none" fill-rule="evenodd">
        <g id="auto-drawing" fill="#000000" fill-rule="nonzero">
            <path d="M15.8350515,0.0176730486 L14.3575847,0.0176730486 L14.3575847,2.97614138 L15.8350515,2.97614138 L15.8350515,0.0176730486 Z M22.678056,3.24123711 L21.6318115,2.19145803 L19.5393225,4.28394698 L20.5891016,5.33372607 L22.678056,3.24123711 Z M12.3181149,4.28394698 L10.2256259,2.19145803 L9.17584683,3.2377025 L11.2683358,5.33019146 L12.3181149,4.28394698 Z M15.8350515,4.54904271 L1.59057437,18.7970545 L5.10751105,22.3139912 L19.3979381,8.01649485 L15.8350515,4.54904271 Z M12.8306333,9.73078056 L15.8385862,6.72282769 L17.316053,8.11192931 L14.2621502,11.1658321 L12.8306333,9.73078056 Z M18.3835052,13.1381443 L20.4759941,15.2306333 L21.5257732,14.1879234 L19.4332842,12.0954345 L18.3835052,13.1381443 Z M21.0167894,8.90014728 L21.0167894,10.3776141 L23.9752577,10.3776141 L23.9752577,8.90014728 L21.0167894,8.90014728 Z" id="Shape"></path>
            <polygon id="Path" points="1.20530191 19.0974963 4.7257732 22.7522828 0.0106038292 23.6571429"></polygon>
        </g>
    </g>
</svg>