<svg width="196" height="27" viewBox="0 0 196 27" fill="none" xmlns="http://www.w3.org/2000/svg">
<path d="M8.036 24.704L9.8 24.74V26H0.296V24.74L2.06 24.704V3.176L0.296 3.14V1.88H9.8V3.14L8.036 3.176V24.704ZM24.128 24.74V26H12.932V24.74L14.696 24.704L8.576 14.156L16.388 3.176L14.624 3.14V1.88H23.192V3.14L21.248 3.176L13.256 10.916L22.364 24.704L24.128 24.74ZM25.9252 2.204L30.5332 1.16V5.264L25.9252 5.948V2.204ZM30.8932 24.848L32.2252 24.956V26H24.4852V24.956L25.8172 24.848L25.7092 12.032L24.3412 12.32L23.9812 11.276L30.4972 9.26L31.0012 10.124L30.8932 24.848ZM51.3586 24.956V26H43.6546V24.956L44.9866 24.848V17.252C44.9866 16.196 44.6866 15.38 44.0866 14.804C43.5106 14.228 42.7066 13.928 41.6746 13.904L40.5226 15.092L40.3786 24.848L41.7106 24.956V26H33.9706V24.956L35.3026 24.848L35.1946 11.96L33.8266 12.284L33.4666 11.204L39.1546 9.44L40.4146 13.472L43.4026 9.188C45.6826 9.188 47.3626 9.728 48.4426 10.808C49.5226 11.888 50.0626 13.556 50.0626 15.812V24.848L51.3586 24.956ZM70.3121 23.516L65.0561 26.36C64.4081 25.976 63.9281 25.472 63.6161 24.848C63.3281 24.2 63.1601 23.372 63.1121 22.364L59.5481 26.54C58.1561 26.54 56.9201 26.228 55.8401 25.604C54.7841 24.956 53.9561 24.08 53.3561 22.976C52.7561 21.848 52.4561 20.576 52.4561 19.16C52.4561 17.936 52.6601 16.64 53.0681 15.272C53.4761 13.904 53.9681 12.836 54.5441 12.068C55.0001 11.42 55.8281 10.796 57.0281 10.196C58.2281 9.572 59.2361 9.26 60.0521 9.26C60.7721 9.26 61.7561 9.38 63.0041 9.62L62.9321 3.284L61.5641 3.572L61.2041 2.528L67.8641 0.512L68.3681 1.376L68.1521 20.024C68.1521 20.888 68.2001 21.536 68.2961 21.968C68.3921 22.376 68.5601 22.736 68.8001 23.048L69.8801 22.544L70.3121 23.516ZM57.6401 17C57.6401 18.104 57.8201 19.064 58.1801 19.88C58.5401 20.696 59.0081 21.32 59.5841 21.752C60.1841 22.184 60.8201 22.4 61.4921 22.4L63.1121 20.78L63.0401 13.508C61.4801 12.764 59.9801 12.26 58.5401 11.996C57.9401 13.364 57.6401 15.032 57.6401 17ZM88.5891 24.956V26H80.8851V24.956L82.2171 24.848V17.252C82.2171 16.196 81.9171 15.38 81.3171 14.804C80.7411 14.228 79.9371 13.928 78.9051 13.904L77.7531 15.092L77.6091 24.848L78.9411 24.956V26H71.2011V24.956L72.5331 24.848L72.4251 11.96L71.0571 12.284L70.6971 11.204L76.3851 9.44L77.6451 13.472L80.6331 9.188C82.9131 9.188 84.5931 9.728 85.6731 10.808C86.7531 11.888 87.2931 13.556 87.2931 15.812V24.848L88.5891 24.956ZM98.0025 9.26C100.115 9.26 101.771 10.028 102.971 11.564C104.195 13.076 104.795 15.128 104.771 17.72L94.8345 18.044C95.0025 19.46 95.4945 20.54 96.3105 21.284C97.1265 22.028 98.2065 22.4 99.5505 22.4C101.423 22.4 102.947 21.884 104.123 20.852L104.771 21.428C103.931 23.036 102.791 24.296 101.351 25.208C99.9345 26.096 98.4225 26.54 96.8145 26.54C94.6305 26.54 92.8905 25.82 91.5945 24.38C90.3225 22.916 89.6865 20.948 89.6865 18.476C89.6865 17.012 89.9745 15.56 90.5505 14.12C91.1505 12.68 91.9065 11.48 92.8185 10.52C93.4425 10.16 94.2465 9.86 95.2305 9.62C96.2145 9.38 97.1385 9.26 98.0025 9.26ZM99.4425 16.532C99.4185 14.852 99.1785 13.52 98.7225 12.536C98.2665 11.552 97.6185 10.964 96.7785 10.772C96.1785 11.396 95.6865 12.272 95.3025 13.4C94.9425 14.504 94.7625 15.644 94.7625 16.82V16.928L99.4425 16.532ZM111.257 12.5C111.257 13.148 111.509 13.736 112.013 14.264C112.541 14.792 113.333 15.416 114.389 16.136C115.685 17.024 116.669 17.828 117.341 18.548C118.013 19.268 118.349 20.156 118.349 21.212C118.349 22.148 118.073 23.024 117.521 23.84C116.969 24.656 116.189 25.316 115.181 25.82C114.173 26.3 113.021 26.54 111.725 26.54C110.477 26.54 109.289 26.24 108.161 25.64C107.057 25.04 106.241 24.272 105.713 23.336L108.809 20.852C109.769 22.652 110.753 24.128 111.761 25.28C112.169 24.968 112.505 24.608 112.769 24.2C113.057 23.768 113.201 23.348 113.201 22.94C113.201 22.268 112.949 21.692 112.445 21.212C111.965 20.708 111.209 20.108 110.177 19.412C109.337 18.86 108.665 18.38 108.161 17.972C107.657 17.564 107.225 17.072 106.865 16.496C106.529 15.92 106.361 15.272 106.361 14.552C106.361 13.664 106.649 12.812 107.225 11.996C107.825 11.18 108.653 10.52 109.709 10.016C110.765 9.512 111.965 9.26 113.309 9.26C114.341 9.26 115.313 9.488 116.225 9.944C117.161 10.376 117.917 10.928 118.493 11.6L115.685 14.372C114.533 12.908 113.261 11.6 111.869 10.448C111.461 10.976 111.257 11.66 111.257 12.5ZM110.069 26H110.105H110.069ZM125.108 12.5C125.108 13.148 125.36 13.736 125.864 14.264C126.392 14.792 127.184 15.416 128.24 16.136C129.536 17.024 130.52 17.828 131.192 18.548C131.864 19.268 132.2 20.156 132.2 21.212C132.2 22.148 131.924 23.024 131.372 23.84C130.82 24.656 130.04 25.316 129.032 25.82C128.024 26.3 126.872 26.54 125.576 26.54C124.328 26.54 123.14 26.24 122.012 25.64C120.908 25.04 120.092 24.272 119.564 23.336L122.66 20.852C123.62 22.652 124.604 24.128 125.612 25.28C126.02 24.968 126.356 24.608 126.62 24.2C126.908 23.768 127.052 23.348 127.052 22.94C127.052 22.268 126.8 21.692 126.296 21.212C125.816 20.708 125.06 20.108 124.028 19.412C123.188 18.86 122.516 18.38 122.012 17.972C121.508 17.564 121.076 17.072 120.716 16.496C120.38 15.92 120.212 15.272 120.212 14.552C120.212 13.664 120.5 12.812 121.076 11.996C121.676 11.18 122.504 10.52 123.56 10.016C124.616 9.512 125.816 9.26 127.16 9.26C128.192 9.26 129.164 9.488 130.076 9.944C131.012 10.376 131.768 10.928 132.344 11.6L129.536 14.372C128.384 12.908 127.112 11.6 125.72 10.448C125.312 10.976 125.108 11.66 125.108 12.5ZM123.92 26H123.956H123.92ZM163.365 24.74V26H152.529V24.74L154.293 24.704L152.637 18.8H146.517L145.329 24.704L147.165 24.74V26H139.029V24.74L140.793 24.704L148.857 2.168L153.321 1.556L161.601 24.704L163.365 24.74ZM152.241 17.468L149.073 6.2L146.805 17.468H152.241ZM184.89 8.936C184.89 11.48 183.798 13.496 181.614 14.984C179.454 16.448 176.286 17.228 172.11 17.324V24.704L176.034 24.74V26H164.37V24.74L166.134 24.704V3.176L164.37 3.14V1.88L171.318 1.952L176.682 1.7C178.41 1.7 179.886 2.024 181.11 2.672C182.358 3.32 183.294 4.196 183.918 5.3C184.566 6.404 184.89 7.616 184.89 8.936ZM178.482 9.98C178.482 8.708 178.206 7.556 177.654 6.524C177.102 5.468 176.334 4.64 175.35 4.04C174.39 3.44 173.31 3.14 172.11 3.14V15.92C174.102 15.8 175.662 15.224 176.79 14.192C177.918 13.136 178.482 11.732 178.482 9.98ZM185.921 24.74L187.685 24.704V3.176L185.921 3.14V1.88H195.425V3.14L193.661 3.176V24.704L195.425 24.74V26H185.921V24.74Z" fill="black"/>
</svg>
